<svg style="fill:whitesmoke;" height="512" viewBox="0 0 511.918 511.918" width="512" xmlns="http://www.w3.org/2000/svg">
	<g>
		<path d="m376.412 106.454c-3.215-4.487-9.463-5.521-13.953-2.303-4.489 3.217-5.521 9.464-2.303 13.953 45.693 63.759 26.126 152.766-41.28 191.683-63.29 36.54-144.089 14.899-180.634-48.4-36.456-63.146-14.744-144.178 48.4-180.635 36.514-21.081 79.698-23.6 118.482-6.915 5.07 2.183 10.955-.159 13.138-5.233 2.183-5.073-.16-10.955-5.233-13.138-42.898-18.456-93.348-16.883-136.387 7.966-72.695 41.971-97.691 135.26-55.721 207.955 41.968 72.692 134.884 97.91 207.954 55.721 77.721-44.872 100.264-147.084 47.537-220.654z"/>
		
		<path d="m341.68 94.195c5.522 0 10-4.478 10-10s-4.478-10-10-10h-.025c-5.522 0-9.987 4.478-9.987 10s4.489 10 10.012 10z"/>
		<path d="m448.46 445.002-61.96-107.317c64.047-59.918 82.155-159.092 35.401-240.07-53.844-93.264-173.528-125.334-266.796-71.487-93.264 53.846-125.334 173.531-71.487 266.796 46.79 81.044 141.781 114.87 225.613 89.387l61.954 107.306c12.24 21.201 39.542 28.687 60.945 16.33 21.305-12.3 28.63-39.641 16.33-60.945zm-120.135-69.619c7.418-3.13 14.832-6.782 22.088-10.97.001-.001.001-.001.001-.001 6.679-3.851 14.036-8.703 20.551-13.634l10.93 18.932c-12.785 9.434-27.053 17.816-42.635 24.614zm-227.387-92.459c-48.333-83.715-19.547-191.143 64.167-239.476 84.246-48.64 191.454-19.01 239.476 64.167 43.26 74.929 24.711 167.087-37.332 220.44-83.563 71.878-211.418 49.945-266.311-45.131zm321.191 205.703c-11.782 6.801-26.822 2.774-33.624-9.01l-39.192-67.882c15.132-6.773 29.187-14.885 42.635-24.615l39.191 67.881c6.787 11.756 2.745 26.84-9.01 33.626z"/>
	</g>
</svg>